<?xml version="1.0" encoding="UTF-8" standalone="no"?>
<svg
   xmlns:dc="http://purl.org/dc/elements/1.1/"
   xmlns:cc="http://creativecommons.org/ns#"
   xmlns:rdf="http://www.w3.org/1999/02/22-rdf-syntax-ns#"
   xmlns:svg="http://www.w3.org/2000/svg"
   xmlns="http://www.w3.org/2000/svg"
   xmlns:sodipodi="http://sodipodi.sourceforge.net/DTD/sodipodi-0.dtd"
   xmlns:inkscape="http://www.inkscape.org/namespaces/inkscape"
   id="svg"
   version="1.1"
   width="187.23529"
   height="187.32155"
   viewBox="0 0 187.23529 187.32155"
   inkscape:version="0.91 r13725"
   sodipodi:docname="mountNite.svg">
  <metadata
     id="metadata3344">
    <rdf:RDF>
      <cc:Work
         rdf:about="">
        <dc:format>image/svg+xml</dc:format>
        <dc:type
           rdf:resource="http://purl.org/dc/dcmitype/StillImage" />
        <dc:title></dc:title>
      </cc:Work>
    </rdf:RDF>
  </metadata>
  <defs
     id="defs3342" />
  <sodipodi:namedview
     pagecolor="#ffffff"
     bordercolor="#666666"
     borderopacity="1"
     objecttolerance="10"
     gridtolerance="10"
     guidetolerance="10"
     inkscape:pageopacity="0"
     inkscape:pageshadow="2"
     inkscape:window-width="1366"
     inkscape:window-height="715"
     id="namedview3340"
     showgrid="false"
     showguides="false"
     fit-margin-top="0"
     fit-margin-left="0"
     fit-margin-right="0"
     fit-margin-bottom="0"
     inkscape:zoom="2.7348709"
     inkscape:cx="95.243876"
     inkscape:cy="100.91412"
     inkscape:window-x="-8"
     inkscape:window-y="-8"
     inkscape:window-maximized="1"
     inkscape:current-layer="svg" />
  <path
     style="fill:#0d0d0d;fill-rule:evenodd;stroke:none"
     d="m 95.304446,0.00418847 c -1.66063,-0.01487 -3.38172,0.0097 -4.82422,0.07617 -7.019,0.322 -14.85067,1.32353223 -17.76367,2.26953223 -0.535,0.173 -1.66286,0.435984 -2.50586,0.583984 -0.843,0.148 -1.78952,0.402453 -2.10352,0.564453 -0.315,0.163 -1.16944,0.434516 -1.89844,0.603516 -0.729,0.169 -1.58339,0.441469 -1.90039,0.605469 -0.316,0.163 -1.04414,0.394672 -1.61914,0.513672 -0.576,0.12 -1.23298,0.334562 -1.45898,0.476562 -0.225,0.143 -0.89147,0.400219 -1.48047,0.574219 -0.589,0.173 -1.42733,0.485359 -1.86133,0.693359 -0.435,0.208 -1.41383,0.660907 -2.17383,1.003906 -2.221,1.002001 -6.80426,3.3329693 -8.19726,4.1679693 -0.706,0.424 -1.48261,0.856938 -1.72461,0.960938 -0.441,0.191 -2.9836,1.854734 -5.80859,3.802734 -8.354,5.762 -17.50099,14.854266 -22.70899,22.572266 -1.225,1.815 -2.9645,4.464375 -3.4375,5.234375 -0.233,0.38 -0.65836,1.048422 -0.94336,1.482422 -0.531,0.809 -3.2565497,5.964984 -3.8105497,7.208984 -0.169,0.38 -0.52125,1.136688 -0.78125,1.679688 -1.346,2.813 -3.3005,7.967859 -3.9375,10.380859 -0.245,0.929 -0.55359,1.887859 -0.68359,2.130859 -0.13,0.242 -0.35877,1.081235 -0.50976,1.865235 -0.15101,0.784 -0.4168,1.825453 -0.5918,2.314453 -0.174,0.488 -0.44361,1.789625 -0.59961,2.890625 -0.155,1.102 -0.38195,2.258359 -0.50195,2.568359 -0.85300005,2.206 -1.69979005,13.919567 -1.42579005,19.726557 0.237,5.023996 1.08863005,12.848776 1.51563005,13.925776 0.15,0.38 0.3332,1.18035 0.4082,1.77735 0.161,1.288 1.17642,5.65006 1.60742,6.91406 0.167,0.489 0.42808,1.33295 0.58008,1.87695 0.151,0.543 0.49567,1.56353 0.76367,2.26953 0.268,0.706 0.6183,1.68483 0.7793,2.17383 1.792,5.426 5.4731297,12.85237 9.2031297,18.56837 1.647,2.524 4.34603,6.34172 4.95703,7.01172 0.297,0.326 0.86758,1.03708 1.26758,1.58008 2.413,3.277 10.53554,11.25559 14.31054,14.05859 2.026,1.504 2.59355,1.93728 3.43555,2.61328 0.459,0.369 1.54506,1.13127 2.41406,1.69727 3.317,2.159 4.95925,3.19623 5.53125,3.49023 0.326,0.168 1.22791,0.66924 2.00391,1.11524 0.776,0.446 2.28837,1.22642 3.35937,1.73242 1.071,0.507 2.60039,1.23042 3.40039,1.60742 0.801,0.378 1.94688,0.85455 2.54688,1.06055 0.599,0.207 1.19055,0.45478 1.31055,0.55078 0.121,0.095 0.66403,0.31337 1.20703,0.48437 0.543,0.172 2.00881,0.678 3.25781,1.125 1.25,0.447 2.96359,0.97483 3.80859,1.17383 0.845,0.2 1.86749,0.49335 2.27149,0.65235 0.405,0.15899 1.35814,0.40015 2.11914,0.53515 0.76,0.135 1.95901,0.41128 2.66601,0.61328 0.706,0.203 2.03989,0.45646 2.96289,0.56446 0.924,0.108 2.87871,0.38232 4.34571,0.61132 5.329,0.832 19.923264,0.75796 24.197264,-0.12304 0.76,-0.157 2.37871,-0.41908 3.59571,-0.58008 1.218,-0.162 2.46162,-0.38986 2.76562,-0.50586 0.303,-0.117 1.26281,-0.33628 2.13281,-0.48828 1.706,-0.298 3.39313,-0.77836 7.70313,-2.19336 1.521,-0.5 3.1653,-1.03927 3.6543,-1.19727 0.488,-0.158 1.47445,-0.54532 2.18945,-0.86132 0.715,-0.31601 1.37194,-0.57618 1.46094,-0.57618 0.305,0 9.25373,-4.34831 10.17773,-4.94531 0.999,-0.647 2.88269,-1.84858 3.55469,-2.26758 6.742,-4.206 10.71175,-7.41475 16.96875,-13.71875 1.783,-1.795 3.73961,-3.88844 4.34961,-4.64844 0.61,-0.76099 1.2575,-1.56034 1.4375,-1.77734 0.181,-0.217 0.80853,-0.97369 1.39453,-1.67969 0.586,-0.706 1.55248,-1.99428 2.14648,-2.86328 0.594,-0.869 1.40097,-2.03289 1.79297,-2.58789 0.393,-0.555 0.90181,-1.35629 1.13281,-1.7793 0.231,-0.423 0.67915,-1.1692 0.99415,-1.6582 3.937,-6.11 8.54989,-16.86266 10.33789,-24.09766 1.506,-6.093 1.88823,-7.89357 2.11523,-9.97657 0.119,-1.086 0.34972,-2.72934 0.51172,-3.65234 0.673,-3.822 0.72708,-18.24132 0.0801,-21.23632 -0.094,-0.435 -0.3171,-1.945422 -0.4961,-3.357422 -0.179,-1.412 -0.4619,-3.190172 -0.6289,-3.951171 -0.167,-0.760001 -0.45939,-2.092891 -0.65039,-2.962891 -0.768,-3.49 -2.01763,-7.909344 -2.76563,-9.777344 -0.195,-0.489 -0.69066,-1.82289 -1.09766,-2.962891 -1.36,-3.813 -5.59417,-12.67439 -6.70117,-14.02539 -0.134,-0.163 -0.52704,-0.784813 -0.87304,-1.382813 -5.363,-9.252 -14.17596,-19.022015 -23.37696,-25.916015 -2.522,-1.89 -3.07098,-2.277407 -5.58398,-3.941406 -1.413,-0.935 -3.05825,-1.945141 -3.65625,-2.244141 -0.597,-0.299 -1.441,-0.780359 -1.875,-1.068359 -0.435,-0.289001 -2.03564,-1.126329 -3.55664,-1.8613293 -1.521,-0.735 -3.03142,-1.476437 -3.35742,-1.648437 -1.432,-0.755 -6.39694,-2.669859 -9.08594,-3.50586 -1.304,-0.405 -2.99391,-0.946172 -3.75391,-1.201172 -0.761,-0.255 -1.78248,-0.52275 -2.27148,-0.59375 -0.489,-0.071 -1.46783,-0.297906 -2.17383,-0.503906 -0.706,-0.206 -2.08355,-0.509781 -3.06055,-0.675781 -0.978,-0.167 -2.40301,-0.429891 -3.16601,-0.587891 -1.243,-0.25500003 -5.70177,-0.75418723 -8.884774,-0.99218723 -1.199,-0.09 -2.79836,-0.145281 -4.45898,-0.160156 z M 83.218506,11.05497 c 0.32972,0.05527 0.50055,0.488609 0.2793,0.974609 -0.187,0.41 -0.29482,0.473875 -0.50782,0.296875 -0.434,-0.36 -0.51148,-0.982453 -0.14648,-1.189453 0.13625,-0.07725 0.26509,-0.100453 0.375,-0.08203 z m 20.544924,3.705078 c 0.279,0.01387 0.64258,0.26875 0.64258,0.53125 0,0.379 -0.64428,0.853766 -0.86328,0.634766 -0.154,-0.154 -0.16367,-0.939844 -0.0137,-1.089844 0.0575,-0.0575 0.14137,-0.0808 0.23437,-0.07617 z m 19.57813,1.921875 c 0.1035,-0.002 0.20754,0.05964 0.43554,0.181641 0.508,0.272 0.48125,0.477281 -0.0937,0.738281 -0.655,0.299 -1.37343,-0.373656 -0.77343,-0.722656 0.225,-0.131 0.32814,-0.195266 0.43164,-0.197266 z m -64.197274,3.333985 c 0.101,0 0.23959,0.149078 0.30859,0.330078 0.16801,0.438 -0.2019,0.815671 -0.5039,0.513672 -0.242,-0.242001 -0.10269,-0.84375 0.19531,-0.84375 z m 29.18359,2.646484 c 0.40413,-0.0021 0.80583,0.189672 1.11133,0.576172 0.448,0.568 0.43824,0.657468 -0.13476,1.230468 -1.084,1.084 -3.04652,-0.05275 -2.10352,-1.21875 0.316,-0.39 0.72283,-0.585765 1.12695,-0.58789 z m -44.65624,1.919922 c 0.26357,-0.0038 0.55089,0.08416 0.83789,0.285156 0.438,0.306 0.59006,1.137891 0.28906,1.587891 -0.485,0.727 -1.81175,0.715468 -2.09375,-0.01953 -0.38925,-1.01325 0.17606,-1.842218 0.9668,-1.853515 z M 143.5857,27.55497 c 0.55697,-0.04078 1.09775,0.318578 1.25,0.923828 0.089,0.356 -0.0406,0.624625 -0.55664,1.140625 l -0.67578,0.673828 -0.75586,-0.771484 c -0.845,-0.866 -0.81255,-1.166109 0.18945,-1.787109 0.17525,-0.10825 0.36317,-0.166094 0.54883,-0.179688 z m -23.10742,2.519531 c 0.37807,-0.03059 0.75828,0.104078 1.0039,0.455078 0.393,0.56 0.38928,1.030578 -0.0117,1.642579 -0.645,0.984 -2.25,0.414171 -2.25,-0.798829 0,-0.7375 0.62769,-1.247851 1.25782,-1.298828 z m -52.019544,0.664063 c 0.16404,0.0295 0.31025,0.162515 0.35938,0.416015 0.111,0.575 -0.11183,0.887438 -0.54883,0.773438 -0.262,-0.069 -0.40625,-0.267547 -0.40625,-0.560547 0,-0.440625 0.32232,-0.678076 0.5957,-0.628906 z m 34.558604,5.289062 c 0.19437,-0.015 0.39451,0.08128 0.47851,0.300782 0.206,0.536 0.13616,0.675781 -0.33984,0.675781 -0.585,0 -0.70703,-0.125516 -0.58203,-0.603516 0.0605,-0.2305 0.24898,-0.358047 0.44336,-0.373047 z m -58.263674,0.185547 c 1.28109,-0.02314 2.59439,0.146078 3.9082,0.525391 3.105,0.897 5.59337,2.659953 7.23437,5.126953 1.793,2.697 1.75344,2.605734 2.27344,5.177734 1.635,8.098 -5.24747,16.054938 -13.48047,15.585938 -2.115,-0.12 -4.40648,-0.645985 -5.27148,-1.208985 -2.46,-1.603 -3.12658,-2.131297 -4.14258,-3.279296 -1.225,-1.384001 -2.4525,-3.599516 -2.6875,-4.853516 -0.08,-0.427 -0.28031,-1.08875 -0.44531,-1.46875 -0.485,-1.119 -0.37258,-3.950235 0.23242,-5.865234 1.87119,-5.923938 6.82751,-9.639948 12.37891,-9.740235 z m 106.578124,2.371094 c 0.351,0 0.48242,0.107531 0.48242,0.394531 0,0.426 -0.85189,0.579266 -1.08789,0.197266 -0.196,-0.318 0.0855,-0.591797 0.60547,-0.591797 z m -72.507814,1.714844 c 0.17435,0.03983 0.29117,0.286484 0.29492,0.693359 0.004,0.419 -0.26292,0.592547 -0.66992,0.435547 -0.405,-0.155 -0.40028,-0.55675 0.0117,-0.96875 0.13425,-0.13425 0.25867,-0.184057 0.36328,-0.160156 z m 41.570314,2.699218 c 0.0589,0.003 0.11778,0.01453 0.17578,0.03516 0.145,0.051 0.34532,0.09375 0.44531,0.09375 0.10001,0 0.18165,0.178484 0.18165,0.396484 0,0.479 -0.99814,0.561281 -1.36915,0.113281 -0.23537,-0.282625 0.15435,-0.659617 0.56641,-0.638672 z m -98.451174,3.013672 c 0.26536,0.0036 0.49064,0.352797 0.36914,0.748047 -0.167,0.546 -0.16792,0.545391 -0.54492,0.400391 -0.378,-0.145 -0.4268,-0.691391 -0.0918,-1.025391 0.0863,-0.0865 0.17913,-0.12425 0.26758,-0.123047 z m 112.291024,1.263672 c 0.082,0 0.25857,0.132922 0.39257,0.294922 0.291,0.349 -0.17493,0.622016 -0.71093,0.416016 -0.321,-0.123 -0.0566,-0.710938 0.31836,-0.710938 z m -45.316414,3.791016 c 0.18848,-0.02044 0.39056,0.15475 0.44531,0.4375 0.134,0.691 -0.1537,1.360656 -0.4707,1.097656 -0.295,-0.245 -0.39535,-1.201313 -0.15235,-1.445313 0.054,-0.05375 0.11491,-0.08303 0.17774,-0.08984 z m 13.009764,0.951172 c 0.243,-0.01837 0.49208,0.08105 0.58008,0.310547 0.184,0.478 0.14855,0.621953 -0.18945,0.751953 -0.494,0.189 -1.05259,-0.209016 -0.93359,-0.666016 0.063,-0.241 0.29996,-0.378109 0.54296,-0.396484 z m 52.31055,1.193359 c 0.25,-0.0038 0.52789,0.05097 0.71289,0.167969 0.407,0.258 0.0777,0.613281 -0.57031,0.613281 -0.597,0 -0.89645,-0.25875 -0.68945,-0.59375 0.075,-0.121 0.29687,-0.18375 0.54687,-0.1875 z m -86.998054,1.787109 c 0.12463,-0.01675 0.25933,0.07689 0.42383,0.275391 0.324,0.39 0.113,0.890625 -0.375,0.890625 -0.519,0 -0.67701,-0.297156 -0.41601,-0.785156 0.127,-0.2375 0.24256,-0.36411 0.36718,-0.38086 z m 99.017584,0.81836 c 0.1785,0.0033 0.33739,0.188547 0.65039,0.560547 0.65,0.772 0.6406,0.970437 -0.0664,1.648437 l -0.57618,0.552735 -0.70703,-0.539063 c -0.871,-0.665 -0.88231,-0.9455 -0.0703,-1.6875 0.393,-0.359 0.59103,-0.538406 0.76953,-0.535156 z m -46.70117,4.529297 c 0.12625,-0.02075 0.27778,0.06819 0.61328,0.242187 1.278,0.66 1.36738,1.011531 0.48438,1.894531 -0.983,0.982 -1.10314,0.981672 -1.74414,0.01367 -0.532,-0.804 -0.52146,-0.916469 0.18554,-1.730468 0.2325,-0.267 0.33469,-0.399172 0.46094,-0.419922 z m -37.253914,1.001953 c 0.179,0.01463 0.32163,0.180672 0.64063,0.513672 1.143,1.193 -0.36681,2.757406 -1.63281,1.691406 -0.836,-0.703 -0.79419,-1.277453 0.13281,-1.814453 0.465,-0.2695 0.68037,-0.40525 0.85937,-0.390625 z m 61.171884,0.765625 c 0.0456,-0.008 0.10473,-0.0023 0.17773,0.01172 0.233,0.045 0.35938,0.241547 0.35938,0.560547 0,0.703 -0.57425,0.641688 -0.65625,-0.07031 -0.039,-0.33975 -0.0176,-0.477906 0.11914,-0.501953 z M 18.501706,63.36747 c 0.15352,0.0123 0.32113,0.07236 0.48438,0.193359 0.379,0.28 0.37828,0.286938 -0.0117,0.585938 -0.498,0.381 -0.58567,0.381578 -0.88867,0.01758 -0.369,-0.44475 -0.0445,-0.833766 0.41601,-0.796875 z m 88.539074,2.097656 c 0.44782,-0.02005 0.85789,0.04478 1.24414,0.191406 0.3,0.114001 0.81643,0.495657 1.14843,0.847657 2.229,2.368 4.98332,5.157109 7.44532,7.537109 10.218,9.882 12.12954,11.690859 12.68554,12.00586 0.342,0.194 0.9875,0.595624 1.4375,0.890624 0.45,0.295001 1.2513,0.798141 1.7793,1.119141 4.778,2.905001 10.82941,8.894781 13.44141,13.300777 2.027,3.419 4.30962,3.96865 7.51562,1.80665 3.41,-2.3 5.61061,-2.8615 7.09961,-1.8125 0.306,0.215 0.76263,0.4552 1.01563,0.5332 0.707,0.22 3.59734,2.75112 6.65234,5.82812 2.683,2.702 3.39703,3.33197 5.58203,4.91797 3.073,2.231 6.76377,6.15745 6.75977,7.18945 -0.011,2.372 -0.78397,2.18055 -3.79297,-0.93945 -4.155,-4.306 -5.34706,-4.07647 -2.03907,0.39453 0.943,1.275 1.06252,1.7493 0.60352,2.4043 -0.798,1.14 -1.85512,0.77822 -3.07812,-1.05078 -1.613,-2.412 -2.69286,-3.95614 -2.88086,-4.11914 -0.126,-0.108 -0.90447,-1.17414 -1.73047,-2.36914 -3.18,-4.602 -4.13544,-5.95519 -4.77344,-6.74219 -0.364,-0.448 -0.76844,-1.04703 -0.89844,-1.33203 -0.77,-1.69 -2.3457,0.21784 -2.3457,2.83984 0,0.698 2.59131,4.15469 4.07031,5.42969 1.912,1.65 3.35658,4.50033 1.89258,3.73633 -0.291,-0.152 -0.63658,-0.27635 -0.76758,-0.27735 -0.132,0 -1.2437,-0.50032 -2.4707,-1.11132 -1.226,-0.611 -2.8865,-1.43413 -3.6875,-1.82813 -1.842,-0.905 -2.75505,-1.93842 -4.62305,-5.23242 -1.526,-2.691 -2.16912,-3.22288 -3.07812,-2.54688 -0.747,0.556 -0.73246,1.03911 0.0605,2.03711 0.384,0.484 0.70018,0.93963 0.70118,1.01563 0.001,0.077 0.40067,0.7102 0.88867,1.4082 0.819,1.172 0.87087,1.31672 0.67187,1.88672 -0.468,1.343 -1.65247,0.96684 -2.85547,-0.91016 -0.402,-0.627 -0.89098,-1.37034 -1.08398,-1.65234 -0.554,-0.807 -1.97019,-2.93991 -2.74219,-4.12891 -0.388,-0.597 -1.28895,-1.79701 -2.00195,-2.66601 -0.713,-0.869 -1.88452,-2.46964 -2.60352,-3.55664 -1.636,-2.470996 -3.84832,-4.739356 -8.23632,-8.443366 -0.95901,-0.809 -1.87621,-0.75451 -2.40821,0.14649 -0.27,0.458 -0.55475,0.6914 -0.84375,0.6914 -0.804,0 -1.07956,-0.33128 -2.47656,-2.988276 -0.877,-1.666 -1.77702,-2.932828 -2.79102,-3.923828 -0.5,-0.489 -2.57628,-2.489313 -4.61328,-4.445312 -2.037,-1.955 -4.73886,-4.559157 -6.00586,-5.785157 -3.044,-2.947 -3.13647,-2.994422 -4.10547,-2.107422 -0.414,0.38 -1.11278,0.786344 -1.55078,0.902344 -1.923,0.512 -2.03795,1.510406 -0.25195,2.191406 1.688,0.643 1.92698,1.13275 1.33398,2.71875 -0.771,2.062 -0.30293,2.6215 1.41407,1.6875 1.581,-0.861 2.04451,-0.134859 1.35351,2.119141 -0.208,0.68 -0.51369,1.890453 -0.67968,2.689453 -0.455,2.203 -0.87207,2.437 -2.66407,1.5 -2.53,-1.323 -4.41745,1.948156 -2.68945,4.660151 0.377,0.593 0.68841,1.17307 0.69141,1.28907 0.003,0.117 0.26879,0.56128 0.59179,0.98828 0.323,0.427 0.59075,0.88172 0.59375,1.01172 0.017,0.721 1.56108,1.08197 2.33008,0.54297 0.413,-0.289 0.45206,-0.2775 0.66406,0.1875 0.243,0.534 0.23519,0.56205 -1.00781,3.873046 -0.346,0.924 -0.71155,1.95025 -0.81055,2.28125 -0.365,1.219 -0.64021,1.41334 -1.44921,1.02734 -0.39101,-0.186 -0.70899,-0.41476 -0.70899,-0.50976 0,-0.094 -0.82412,-1.20004 -1.82812,-2.45704 -1.005,-1.257996 -2.58186,-3.328596 -3.50586,-4.599606 -0.923,-1.271 -2.01574,-2.70927 -2.42774,-3.19727 -0.413004,-0.487 -1.378484,-1.72876 -2.146484,-2.75976 -1.419,-1.904 -2.23263,-2.62 -4.26563,-3.75 -1.635,-0.908 -2.763,-1.565985 -4,-2.333985 -2.305,-1.431 -3.76506,-2.011296 -5.41406,-2.154297 -0.86,-0.075 -2.39611,-0.402515 -3.41211,-0.728515 -3.253,-1.042 -3.39037,-1.002266 -5.23437,1.552734 l -1.20118,1.664063 0.11719,1.138672 c 0.117,1.115 1.13378,4.193312 1.55078,4.695312 0.347,0.418 0.66022,0.300235 1.69922,-0.634766 1.8,-1.617999 2.18856,-1.228484 1.85156,1.853512 -0.127,1.154 -0.32354,3.51982 -0.43554,5.25782 -0.112,1.738 -0.29711,3.873186 -0.41211,4.742186 -0.359,2.714 -0.41925,3.61701 -0.28125,4.16601 l 0.13281,0.53125 0.69922,-0.66992 c 0.384,-0.369 1.09222,-1.45125 1.57422,-2.40625 0.875,-1.733 1.29022,-2.16386 1.69922,-1.75586 0.266,0.266 -0.13393,6.52486 -0.54493,8.50586 -0.149,0.719 -0.41198,2.93388 -0.58398,4.92188 -0.173,1.989 -0.39895,4.03492 -0.50195,4.54492 -0.103,0.51 -0.36689,2.88148 -0.58789,5.27148 -0.508,5.512 -1.01271,6.51449 -2.22071,4.39649 -1.439,-2.525 -3.72801,-6.07422 -3.91601,-6.07422 -0.323,0 -0.59994,0.62837 -0.71094,1.60937 -0.221,1.966 -0.11469,1.97266 -3.55469,-0.27734 -1.537,-1.005 -3.60093,-2.33694 -4.58594,-2.96094 -2.31299,-1.466 -2.53535,-1.7947 -2.19335,-3.2207 0.302,-1.261 -0.0238,-1.86719 -1.00782,-1.86719 -0.788,0 -1.16601,-0.64523 -1.16601,-1.99023 0,-1.125 -0.30789,-2.35547 -0.58789,-2.35547 -0.084,0 -0.6735,0.16614 -1.3125,0.36914 -2.678,0.852 -3.13547,0.67162 -3.73047,-1.48438 -0.175,-0.636 -0.4437,-1.46765 -0.5957,-1.84765 -0.15301,-0.38 -0.38268,-1.07116 -0.51368,-1.53516 -0.282,-0.998 -1.53512,-2.24736 -4.20312,-4.19336 -0.521,-0.38 -1.52542,-1.167 -2.23242,-1.75 -1.787,-1.471996 -2.10199,-1.606416 -3.83399,-1.607416 -1.483,-0.001 -1.51962,-0.0115 -2.76562,-0.9375 -0.695,-0.516 -1.48386,-1.0942 -1.75586,-1.2832 -0.272,-0.19 -1.05996,-0.74733 -1.75196,-1.23633 -1.399,-0.991 -2.2439,-1.13749 -3.0039,-0.52149 l -0.45508,0.36719 -0.008,6.019526 c -0.008,7.071 -0.26217,6.26543 2.79883,8.85743 3.277,2.774 3.30617,2.3224 -0.42383,6.6914 -1.539,1.802 -3.14913,3.72263 -3.57813,4.26563 -0.429,0.543 -1.45058,1.75531 -2.26758,2.69531 -0.817,0.939 -1.7037,1.96148 -1.9707,2.27148 -0.267,0.309 -0.85278,1.05144 -1.30078,1.64844 -1.019,1.358 -3.13387,3.55664 -3.42187,3.55664 -0.408,0 -0.46963,-1.01798 -0.14063,-2.33398 0.18,-0.726 0.45819,-2.60955 0.61719,-4.18555 0.16,-1.575 0.3442,-3.14428 0.4082,-3.48828 0.331,-1.779 -0.79419,-1.99667 -1.36719,-0.26367 -0.621,1.878 -1.62326,2.5192 -2.19726,1.4082 -0.717,-1.386 -1.19235,-1.03416 -4.52735,3.33984 -1.435,1.882 -2.29965,1.94074 -2.59765,0.17774 -0.432,-2.555 -1.53406,-2.6532 -3.16407,-0.2832 -1.2969897,1.887 -1.8215597,2.22545 -2.2265597,1.43945 -0.294,-0.573 -2.33417,-6.04617 -2.45117,-6.57617 -0.405,-1.842 8.5882997,-9.97461 11.0292997,-9.97461 0.411,0 2.96431,-2.73882 4.32031,-4.63282 0.217,-0.304 0.58159,-0.78726 0.80859,-1.07226 0.227,-0.285 0.87155,-1.185 1.43555,-2 5.131,-7.422996 5.94661,-8.387276 8.22461,-9.738286 2.779,-1.647 5.39684,-1.09148 9.33984,1.97852 2.488,1.938 2.27905,1.94647 6.37305,-0.26953 1.914,-1.036 6.59364,-4.38871 8.68164,-6.220705 0.598,-0.524 2.03722,-1.742031 3.19922,-2.707031 1.162,-0.964 2.70659,-2.408937 3.43359,-3.210937 2.401,-2.653 2.93813,-3.197485 4.07813,-4.146485 3.262,-2.717 6.41005,-3.18689 10.62305,-1.58789 4.69,1.781 6.71865,2.074765 7.84765,1.134765 0.302,-0.251 0.78708,-0.582375 1.08008,-0.734375 0.293,-0.151 1.00408,-0.655094 1.58008,-1.121094 0.876,-0.707999 4.48558,-3.342578 6.01758,-4.392578 0.234,-0.161 1.00675,-0.707796 1.71875,-1.216796 1.383,-0.989001 6.547114,-4.111376 8.037114,-4.859376 1.02562,-0.514375 1.87862,-0.782988 2.625,-0.816406 z m 61.06445,4.726563 c 0.23475,-0.0033 0.46797,0.03242 0.54297,0.107422 0.23,0.23 -0.10608,0.876953 -0.45508,0.876953 -0.38,0 -0.85472,-0.643328 -0.63672,-0.861328 0.077,-0.077 0.31408,-0.119797 0.54883,-0.123047 z M 28.550536,71.982704 c 0.10975,-0.0057 0.23894,0.0868 0.39844,0.279297 0.197,0.237 0.19519,0.358516 -0.008,0.603516 -0.328,0.395 -0.86297,-0.05936 -0.66797,-0.568359 0.0785,-0.2045 0.16759,-0.308704 0.27734,-0.314454 z m 32.08594,0.05859 c 0.0605,-0.0046 0.1422,0.06408 0.2832,0.205078 0.242,0.242 0.25731,0.362828 0.0703,0.548828 -0.319,0.32 -0.69067,-0.05167 -0.51367,-0.513672 0.06,-0.156499 0.0997,-0.235609 0.16016,-0.240234 z m -16.8125,0.957031 c 0.16462,0.03388 0.36942,0.175344 0.79492,0.464844 0.816,0.554 0.81744,0.543219 -0.22656,1.699219 -0.58,0.643 -1.08814,0.48775 -1.74414,-0.53125 -0.462,-0.716 -0.39191,-0.883313 0.62109,-1.445313 0.265,-0.147 0.39006,-0.221375 0.55469,-0.1875 z m 91.199224,0.351563 c 0.068,0 0.29486,0.125297 0.50586,0.279297 0.474,0.347 0.27414,0.576172 -0.50586,0.576172 -0.779,0 -0.98086,-0.229172 -0.50586,-0.576172 0.211,-0.154 0.43886,-0.279297 0.50586,-0.279297 z m 20.13476,2.636719 c 0.28309,-0.01098 0.584,0.11025 0.875,0.375 0.698,0.634 0.80822,1.191859 0.32422,1.630859 -0.927,0.838 -2.70779,0.160375 -2.3418,-0.890625 0.24751,-0.71 0.67077,-1.096934 1.14258,-1.115234 z M 12.868896,81.295204 c 0.22563,0.04462 0.42516,0.185047 0.66016,0.435547 0.913,0.972 -0.34508,2.54536 -1.45508,1.81836 -1.041,-0.682 -1.05053,-1.691375 -0.0195,-2.109375 0.3375,-0.137 0.58883,-0.189157 0.81445,-0.144532 z M 173.88257,84.61747 c 0.38854,0.01476 0.76899,0.233016 0.99024,0.697266 0.487,1.021 0.0569,1.774187 -0.99414,1.742187 -0.899,-0.028 -1.32627,-0.363062 -1.32227,-1.039062 0.006,-0.886875 0.6786,-1.424991 1.32617,-1.400391 z M 46.470456,86.238564 c 0.2798,-0.04116 0.55536,0.09491 0.59961,0.347656 0.118,0.674 -0.32356,0.915484 -0.72656,0.396484 -0.277,-0.358 -0.31453,-0.532578 -0.14453,-0.642578 0.086,-0.05575 0.17822,-0.08784 0.27148,-0.101562 z m 105.164074,2.408203 c 0.18995,-0.01172 0.40196,0.513328 0.33984,0.939453 -0.108,0.732 -0.55664,0.662109 -0.55664,-0.08789 0,-0.371 0.0627,-0.7375 0.13867,-0.8125 0.0254,-0.0255 0.051,-0.03739 0.0781,-0.03906 z M 20.700926,90.654574 c 0.0672,-2.8e-4 0.15081,0.0108 0.25781,0.0312 0.331,0.063 0.48436,0.20697 0.44336,0.41797 -0.106,0.56 -0.94531,0.5298 -0.94531,-0.0332 0,-0.306 0.0425,-0.41517 0.24414,-0.41601 z m 106.464854,2.82227 c 0.3141,-0.0134 0.71781,0.29763 1.07031,0.85938 0.29,0.462 1.11022,1.72755 1.82422,2.81055 l 1.30078,1.96875 0.11328,2.281246 c 0.116,2.282 0.11726,2.28303 1.07227,3.95703 1.523,2.671 1.92901,3.39717 2.41601,4.32617 0.251,0.481 0.57475,1.01355 0.71875,1.18555 1.61,1.913 1.01009,2.93668 -1.12891,1.92968 -0.556,-0.262 -1.42845,-0.6275 -1.93945,-0.8125 -1.195,-0.435 -2.03294,-1.38481 -2.21094,-2.50781 -0.075,-0.476 -0.3,-1.39878 -0.5,-2.05078 -0.199,-0.652 -0.42876,-1.67348 -0.50976,-2.27148 -0.08,-0.597 -0.31163,-1.5103 -0.51563,-2.0293 -0.203,-0.519 -0.46412,-1.58609 -0.57812,-2.37109 -0.114,-0.785996 -0.3808,-1.916676 -0.5918,-2.513676 -0.409,-1.156 -0.99431,-4.46272 -0.82031,-4.63672 0.0797,-0.0798 0.17459,-0.12053 0.2793,-0.125 z m 47.46875,6.15625 c 0.26325,0.0111 0.55721,0.13288 0.76171,0.35938 0.308,0.338996 0.30963,0.381136 0.0156,0.494136 -0.885,0.339 -1.58747,0.0542 -1.35547,-0.550776 0.0825,-0.214 0.31488,-0.31386 0.57813,-0.30274 z M 9.3083463,104.56083 c 0.413,0 0.49732,0.0814 0.44532,0.44336 -0.097,0.682 -0.95313,0.7385 -0.95313,0.0625 0,-0.413 0.0938,-0.50586 0.50781,-0.50586 z M 143.52124,118.25028 c 0.194,-0.009 0.34799,0.26446 0.58399,0.81446 0.206,0.482 0.56673,0.97751 0.80273,1.10351 0.601,0.322 0.31678,2.56445 -0.32422,2.56445 -0.18,0 -0.27353,0.22163 -0.26953,0.64063 l 0.006,0.64258 0.58399,-0.64258 c 1.328,-1.459 2.54622,0.20336 1.69922,2.31836 -0.378,0.945 -0.14977,1.73664 0.74023,2.55664 1.014,0.935 0.50983,2.12041 -0.82617,1.94141 -0.679,-0.092 -0.83264,-0.0483 -0.93164,0.26367 -0.195,0.612 0.012,0.71147 1.79101,0.85547 2.061,0.167 2.26691,0.23734 2.25391,0.77734 -0.012,0.473 -1.41441,1.70703 -1.94141,1.70703 -0.181,0 -0.53606,0.14527 -0.78906,0.32227 -0.649,0.454 -0.23358,0.65801 1.35742,0.66601 0.706,0.003 1.40574,0.0818 1.55274,0.17578 0.775,0.491 -1.08775,2.39258 -2.34375,2.39258 -1.918,0 -0.26491,1.17555 2.37109,1.68555 0.38,0.074 1.11577,0.36162 1.63477,0.64062 0.716,0.384 0.99982,0.4523 1.17382,0.2793 0.271,-0.272 -0.45373,-1.15555 -1.17773,-1.43555 -0.674,-0.261 -0.59442,-1.08189 0.14258,-1.46289 0.543,-0.281 0.69044,-1.17801 0.27344,-1.66601 -0.123,-0.143 0.56979,-0.80664 0.84179,-0.80664 0.285,0 0.17339,-0.49533 -0.22461,-0.98633 -0.762,-0.942 -0.51654,-1.57444 0.68946,-1.77344 0.613,-0.102 0.68542,-0.17451 0.60742,-0.60351 -0.285,-1.563 -0.14819,-2.04152 0.63281,-2.22852 0.806,-0.192 0.83816,-0.27428 0.53516,-1.36328 -0.295,-1.061 0.78203,-3.04845 1.45703,-2.68945 0.528,0.281 0.81379,0.63153 1.34179,1.64453 0.226,0.435 0.72252,1.11667 1.10352,1.51367 0.638,0.665 0.68241,0.78912 0.56641,1.57812 -0.214,1.462 -0.1721,1.74027 0.3789,2.57227 0.451,0.68 0.49941,0.88316 0.31641,1.28516 -0.324,0.712 -0.26541,1.05078 0.18359,1.05078 1.619,0 2.03727,0.85664 0.82227,1.68164 l -0.69922,0.47461 0.47852,0.18164 c 0.263,0.1 0.65604,0.21867 0.87304,0.26367 0.443,0.091 0.47292,0.89886 0.0449,1.25586 -1.383,1.156 -1.33484,1.75647 0.16016,1.98047 1.386,0.208 1.63747,0.48933 1.10547,1.23633 -0.569,0.799 -1.37003,1.41992 -1.83203,1.41992 -0.607,0 -0.41361,0.33651 0.27539,0.47851 3.527,0.729 4.81648,0.2833 3.89648,-1.3457 l -0.62109,-1.10156 0.39844,-0.50977 c 0.491,-0.623 0.89933,-2.47094 0.73632,-3.33594 -0.091,-0.49 -0.0267,-0.72204 0.2793,-0.99804 0.283,-0.257 0.39649,-0.60947 0.39649,-1.23047 0,-0.714 0.10575,-0.96516 0.59375,-1.41016 0.523,-0.478 0.56112,-0.58725 0.32812,-0.90625 -0.364,-0.497 -0.18403,-1.22622 0.41797,-1.69922 l 0.50195,-0.39648 0.34766,0.5293 c 0.19,0.29 0.40456,0.84728 0.47656,1.23828 0.073,0.392 0.27145,0.86573 0.43946,1.05273 0.196,0.219 0.36928,1.02949 0.48828,2.27149 0.147,1.534 0.2885,2.08822 0.6875,2.69922 0.407,0.62299 0.47528,0.90542 0.36328,1.48242 -0.077,0.392 -0.20611,1.15145 -0.28711,1.68945 -0.082,0.537 -0.25381,1.01364 -0.38281,1.05664 -0.129,0.043 -0.49927,0.58031 -0.82227,1.19531 -3.159,5.996 -12.60542,16.22327 -20.73242,22.44727 -0.706,0.541 -1.37247,1.05648 -1.48047,1.14648 -2.417,1.991 -11.38006,7.33939 -14.91406,8.90039 -0.923,0.408 -2.03671,0.91214 -2.47071,1.11914 -0.435,0.207 -1.14412,0.50321 -1.57812,0.65821 -0.764,0.273 -2.00352,0.76706 -3.85352,1.53906 -0.922,0.384 -3.44798,1.17397 -5.33398,1.66797 -0.597,0.157 -1.61753,0.45792 -2.26953,0.66992 -0.652,0.212 -1.76471,0.48256 -2.47071,0.60156 -0.706,0.12 -1.8604,0.38103 -2.5664,0.58203 -0.706,0.201 -1.81871,0.42315 -2.47071,0.49415 -0.65199,0.072 -2.17853,0.29885 -3.39453,0.50585 -4.632,0.788 -18.104074,1.02835 -22.580074,0.40235 -3.337,-0.466 -7.80169,-1.24741 -9.67969,-1.69141 -1.14,-0.27 -2.322,-0.49119 -2.625,-0.49219 -0.303,-0.001 -0.8802,-0.16618 -1.28321,-0.36718 -0.403,-0.202 -1.30867,-0.47828 -2.01367,-0.61328 -0.705,-0.135 -1.50911,-0.36186 -1.78711,-0.50586 -0.277,-0.144 -1.06695,-0.40599 -1.75195,-0.58399 -0.686,-0.178 -1.57084,-0.49603 -1.96484,-0.70703 -0.394,-0.212 -0.90477,-0.38476 -1.13477,-0.38476 -0.23,0 -0.81383,-0.21271 -1.29883,-0.47071 -0.485,-0.258 -1.09828,-0.53423 -1.36328,-0.61523 -0.995,-0.305 -6.93787,-3.19208 -9.17187,-4.45508 -0.76,-0.43 -1.78249,-1.00816 -2.27149,-1.28516 -0.489,-0.276 -1.37856,-0.80483 -1.97656,-1.17382 -0.597,-0.369 -1.34702,-0.81996 -1.66602,-1.00196 -0.319,-0.182 -1.11929,-0.74972 -1.77929,-1.26172 -0.66,-0.512 -1.4195,-1.04936 -1.6875,-1.19336 -0.551,-0.295 -3.74808,-2.83962 -5.83008,-4.64062 -5.591,-4.839 -10.60752,-10.24908 -10.85352,-11.70508 -0.168,-0.99 0.0156,-4.57037 0.26758,-5.23437 0.106,-0.278 0.14013,-1.00047 0.0781,-1.60547 -0.09,-0.872 -0.0237,-1.30638 0.32226,-2.10938 0.239,-0.557 0.51719,-1.51586 0.61719,-2.13086 0.492,-3.034 2.03469,-3.17151 2.55469,-0.22851 0.125,0.706 0.40033,1.86236 0.61133,2.56836 0.211,0.706 0.41321,1.63921 0.44921,2.07421 0.036,0.434 0.22021,1.08913 0.40821,1.45313 0.189,0.365 0.29533,0.85675 0.23633,1.09375 -0.064,0.254 0.0579,0.7047 0.29492,1.0957 0.223,0.366 0.35583,0.84155 0.29883,1.06055 -0.057,0.218 -0.0152,0.55977 0.0918,0.75977 0.746,1.395 3.69764,-2.48649 3.05664,-4.02149 -0.254,-0.608 -0.25304,-0.74147 0.002,-1.10547 0.203,-0.29 0.25111,-0.65784 0.16211,-1.21484 -0.084,-0.523 -0.0429,-0.90266 0.11914,-1.09766 0.159,-0.192 0.204,-0.5744 0.125,-1.0664 -0.08,-0.502 -0.0145,-1.02282 0.1875,-1.50782 0.214,-0.512 0.27059,-1.0252 0.18359,-1.6582 -0.09,-0.653 -0.006,-1.33862 0.29297,-2.39062 0.23,-0.811 0.5414,-2.01107 0.6914,-2.66407 0.63801,-2.789 0.95083,-3.03433 2.04883,-1.61133 0.672,0.87001 0.81736,1.21369 0.81836,1.92969 10e-4,0.526 0.20658,1.30103 0.51758,1.95703 0.283,0.597 0.58583,1.61949 0.67383,2.27149 0.087,0.652 0.3405,1.89562 0.5625,2.76562 0.223,0.869 0.40811,1.80222 0.41211,2.07422 0.004,0.271 0.22614,1.02769 0.49414,1.67969 0.267,0.651 0.54228,1.56334 0.61328,2.02734 0.226,1.478 1.26802,1.99186 2.29102,1.13086 0.323,-0.271 0.82523,-0.49409 1.11523,-0.49609 0.893,-0.005 1.08442,-0.2386 0.85742,-1.05859 -0.194,-0.702 -0.18014,-0.73199 0.50586,-1.08399 l 0.70313,-0.36133 -0.53125,-0.37695 c -1.187,-0.84 -1.35952,-1.01261 -1.22852,-1.22461 0.075,-0.122 0.44527,-0.27961 0.82227,-0.34961 0.755,-0.142 0.95471,-0.79753 0.38671,-1.26953 -0.394,-0.327 -0.37267,-0.53049 0.11133,-1.14648 0.349,-0.44301 0.38735,-0.68494 0.27735,-1.71094 -0.113,-1.056 -0.0788,-1.24032 0.28515,-1.57032 0.484,-0.43899 0.51063,-0.77821 0.14063,-1.82421 -0.242,-0.687 -0.22872,-0.90458 0.11328,-2.01758 0.282,-0.919 0.33231,-1.3902 0.19531,-1.78321 -0.151,-0.43399 -0.10309,-0.62796 0.25391,-1.04296 0.326,-0.379 0.47226,-0.87922 0.57226,-1.94922 0.168,-1.814 0.46224,-2.46094 1.11524,-2.46094 0.721,0 2.16992,2.19606 2.16992,3.28906 0,0.432 0.10823,0.9788 0.24023,1.2168 0.131,0.237 0.25444,0.68037 0.27344,0.98437 0.019,0.304 0.19558,0.72832 0.39258,0.94532 0.345,0.381 0.49761,1.47925 0.47461,3.40625 -0.007,0.581 0.10623,0.84939 0.49023,1.15039 0.607,0.478 0.63285,0.89075 0.0899,1.46875 l -0.41016,0.43554 0.60742,0.35938 c 0.625,0.369 0.75307,0.81912 0.41407,1.45312 -0.146,0.273 -0.0504,0.64163 0.39257,1.51563 0.322,0.636 0.6875,1.60153 0.8125,2.14453 0.767,3.325 2.93236,4.21689 2.94336,1.21289 0.003,-0.784 0.1305,-1.20189 0.5625,-1.83789 0.485,-0.716 0.5736,-1.07662 0.6836,-2.76562 0.343,-5.268 1.75089,-9.88108 2.96289,-9.70508 0.528,0.077 0.51745,0.046 2.31445,6.75195 0.345,1.29 0.89566,2.91819 1.22266,3.61719 0.569,1.216 0.58903,1.34639 0.45703,3.02539 -0.258,3.298 0.80106,4.24997 4.91406,4.41797 1.066,0.044 2.14917,-1.68039 2.45117,-3.90039 0.731,-5.379 2.31556,-10.19922 3.35156,-10.19922 0.251,0 0.63282,1.0762 0.63282,1.7832 0,0.296 0.12058,0.88369 0.26758,1.30469 0.148,0.421 0.3302,1.20895 0.4082,1.75195 0.216,1.524 0.66369,3.17725 1.42969,5.28125 0.655,1.8 0.6924,2.02103 0.5664,3.45703 -0.189,2.153 0.95927,3.65128 2.19727,2.86328 0.388,-0.247 1.05459,-2.26803 1.05859,-3.20703 0.002,-0.489 0.13206,-1.42026 0.28906,-2.07226 0.158,-0.652 0.29283,-1.58522 0.29883,-2.07422 0.034,-2.558 1.09411,-4.72135 1.91211,-3.90234 0.275,0.274 1.64453,5.52282 1.64453,6.29882 0,0.209 0.226,0.82519 0.5,1.36719 0.411,0.811 0.49475,1.23611 0.46875,2.41211 -0.071,3.262 0.33971,4.09175 1.84571,3.71875 0.571,-0.141 1.63046,-0.29956 2.35546,-0.35156 2.15101,-0.154 2.57029,-1.05542 0.86329,-1.85742 -1.584,-0.745 -1.01583,-1.89765 0.82617,-1.68165 0.966,0.11401 1.09989,0.0778 1.58789,-0.41015 l 0.5332,-0.5332 -0.78515,-0.35157 c -0.433,-0.194 -1.01025,-0.35637 -1.28125,-0.35937 -0.61,-0.007 -1.68199,-0.64121 -1.95899,-1.15821 -0.3,-0.56 0.1768,-0.8711 1.5918,-1.0371 2.267,-0.268 2.55406,-1.17933 0.66406,-2.11133 -0.706,-0.348 -1.2832,-0.7116 -1.2832,-0.8086 0,-0.319 1.32873,-1.19748 2.30273,-1.52148 1.764,-0.588 1.68356,-1.26953 -0.14844,-1.26953 -0.762,0 -1.21946,-0.8235 -0.73046,-1.3125 0.247,-0.247 0.27118,-0.44977 0.11718,-1.00977 -0.261,-0.945 0.0483,-1.62695 0.73828,-1.62695 1.41,0 1.72097,-1.02692 0.54297,-1.79492 -0.402,-0.263 -0.89756,-0.76424 -1.10156,-1.11524 l -0.37109,-0.63867 0.69922,-0.33203 c 0.832,-0.397 1.03109,-0.79895 0.62109,-1.25195 -0.437,-0.483 -0.37083,-0.90039 0.20117,-1.27539 0.992,-0.65 1.05589,-1.23386 0.21289,-2.00586 -0.989,-0.906 -0.85547,-1.13636 0.76953,-1.31836 1.659,-0.185 1.57717,-0.0789 0.95117,-1.25391 -0.62099,-1.164 -0.54129,-1.93986 0.22071,-2.13086 1.385,-0.347 1.55647,-0.48542 1.23047,-0.98242 -0.808,-1.233 -0.1236,-3.46452 1.066404,-3.47852 0.436,-0.005 1.56641,1.62868 1.56641,2.26368 0,0.783 0.31184,1.22251 0.96484,1.35351 0.716,0.143 0.83675,0.64413 0.46875,1.95313 -0.309,1.103 -0.16234,1.87079 0.47266,2.46679 0.549,0.516 0.62744,1.6431 0.14844,2.1211 -0.286,0.287 -0.23042,0.34884 0.64258,0.71484 1.963,0.822 2.00625,1.02891 0.40624,1.87891 -1.25099,0.664 -1.15618,1.4822 0.13282,1.1582 1.102,-0.276 1.48444,0.007 1.27344,0.94336 -0.23301,1.038 -0.0632,0.92212 -1.74219,1.20313 -1.374,0.22999 -1.41092,0.25103 -1.04492,0.58203 0.765,0.693 2.12501,0.67765 2.54101,-0.0273 0.413,-0.698 0.32799,-0.67114 2.08399,-0.61914 1.523,0.045 1.7512,-0.14942 1.1582,-0.98242 -1.068,-1.5 -0.74586,-2.39858 0.99414,-2.76758 1.071,-0.228 1.1613,-0.28431 0.9043,-0.57031 -0.156,-0.175 -0.43419,-0.69334 -0.61719,-1.15234 -0.368,-0.924 -0.46536,-0.683 1.05664,-2.625 0.586,-0.746 1.16064,-0.76588 1.43164,-0.0469 0.113,0.299 0.47564,0.82497 0.80664,1.16797 0.758,0.786 0.67366,2.13131 -0.15234,2.44531 -0.501,0.19 -0.58921,0.49352 -0.28321,0.97852 0.155,0.244 0.30214,0.17986 0.86914,-0.36914 1.266,-1.227 2.44636,-0.21689 1.94336,1.66211 -0.423,1.582 -0.33022,1.9927 0.67579,2.9707 1.20299,1.169 0.91706,1.66406 -0.96094,1.66406 -1.573,0 -1.45289,0.45042 0.16211,0.60742 0.644,0.062 1.41861,0.21771 1.72461,0.34571 0.306,0.127 0.81771,0.23242 1.13672,0.23242 0.73599,0 0.75549,0.38887 0.0625,1.29687 -0.40101,0.526 -0.66126,0.67774 -1.15626,0.67774 -0.733,0 -1.88281,0.35989 -1.88281,0.58789 0,0.352 1.18808,0.62676 2.20508,0.50976 2.877,-0.332 1.68924,2.07374 -1.25977,2.55274 -1.434,0.232 -1.1225,0.87639 0.4375,0.90039 3.34501,0.052 4.79832,1.40705 2.94532,2.74805 -0.457,0.332 -1.04178,0.60156 -1.30078,0.60156 -0.487,0 -1.8418,0.49583 -1.8418,0.67383 0,0.797 2.97941,0.39342 3.81641,-0.51758 0.436,-0.475 1.0407,-0.82186 1.9707,-1.13086 1.456,-0.483 1.54344,-0.84147 0.27344,-1.10547 -0.346,-0.072 -0.8368,-0.26183 -1.0918,-0.42383 l -0.46289,-0.29492 0.43945,-0.4668 c 0.364,-0.387 0.41945,-0.60872 0.31445,-1.26172 -0.13999,-0.877 0.16758,-1.19921 1.14258,-1.19921 1.111,0 0.81343,-1.59075 -0.39258,-2.09375 -0.834,-0.349 -0.89853,-0.93899 -0.14453,-1.33399 0.482,-0.252 0.52843,-0.37205 0.48243,-1.24805 -0.039,-0.734 0.0484,-1.09332 0.35742,-1.48632 0.543,-0.69 0.51301,-1.26525 -0.084,-1.65625 -0.72,-0.472 -0.35375,-1.07227 0.65625,-1.07227 1.249,0 1.57674,-0.38051 1.05274,-1.22851 -0.583,-0.942 -0.582,-1.93165 0,-1.93165 0.813,0 1.53412,-1.12146 0.95312,-1.48046 -0.485,-0.3 0.56041,-2.46775 1.19141,-2.46875 0.853,-10e-4 1.86978,1.41286 1.80078,2.50586 -0.036,0.573 0.0449,0.66811 0.87891,1.03711 0.706,0.31299 0.89168,0.48495 0.80468,0.75195 -0.568,1.736 -0.60998,2.04256 -0.33398,2.47656 0.522,0.822 0.95633,1.81766 0.86133,1.97266 -0.202,0.326 0.16719,1.32798 0.49219,1.33398 1.54,0.03 1.14984,1.32053 -0.53516,1.76953 -1.002,0.267 -0.88494,0.55685 0.28906,0.71485 1.557,0.21 1.66211,0.25943 1.66211,0.77343 0,0.27 -0.0702,0.49024 -0.15625,0.49024 -0.278,0 -1.62109,1.3732 -1.62109,1.6582 0,0.346 0.43145,0.51563 1.31445,0.51563 0.565,0 1.28323,0.2239 1.61523,0.5039 0.29,0.244 -1.26853,2.0625 -1.76953,2.0625 -0.635,0 -0.55447,0.32122 0.14453,0.57422 0.984,0.356 2.40485,0.31683 2.83985,-0.0762 0.198,-0.179 0.82648,-0.44766 1.39648,-0.59766 1.151,-0.304 1.26775,-0.38773 1.46875,-1.05273 0.13,-0.429 0.0915,-0.45739 -0.56445,-0.40039 -1.44,0.124 -2.27147,-1.37766 -1.23047,-2.22266 0.377,-0.306 0.37959,-0.34498 0.0586,-0.83398 -0.648,-0.989 -0.1607,-1.71094 1.1543,-1.71094 1.514,0 1.39081,-1.18264 -0.24219,-2.30664 -1.518,-1.046 -1.62151,-1.31292 -0.72851,-1.91992 1.19,-0.809 1.53911,-1.48653 1.03711,-2.01953 -0.771,-0.821 0.26912,-1.65221 2.07812,-1.65821 0.596,-0.002 0.73363,-0.0543 0.51563,-0.19531 -0.163,-0.105 -0.47727,-0.19236 -0.69727,-0.19336 -0.253,-0.002 -0.53644,-0.25922 -0.77344,-0.69922 -0.206,-0.383 -0.58012,-0.74754 -0.82812,-0.81054 -1.505,-0.378 -0.74133,-1.54929 0.88867,-1.36329 1.627,0.186 2.081,-0.18171 1.25,-1.01171 -1.339,-1.34 -1.3003,-2.62658 0.0957,-3.14258 1.342,-0.496 1.52283,-0.65874 1.17383,-1.05274 -0.676,-0.762 -0.96431,-1.87331 -0.57031,-2.19531 0.2,-0.163 0.65381,-0.71837 1.00781,-1.23437 0.397,-0.5785 0.63217,-0.86808 0.82617,-0.87696 z m -41.98242,4.28907 c -0.25637,0.0246 -0.52744,0.0954 -0.58594,0.18945 -0.137,0.221 0.22485,0.99023 0.46485,0.99023 0.139,0 0.61914,-0.8497 0.61914,-1.0957 0,-0.0885 -0.24167,-0.10861 -0.49805,-0.084 z"
     id="path0"
     inkscape:connector-curvature="0" />
</svg>
