<?xml version="1.0" encoding="UTF-8" standalone="no"?>
<svg
   xmlns:dc="http://purl.org/dc/elements/1.1/"
   xmlns:cc="http://creativecommons.org/ns#"
   xmlns:rdf="http://www.w3.org/1999/02/22-rdf-syntax-ns#"
   xmlns:svg="http://www.w3.org/2000/svg"
   xmlns="http://www.w3.org/2000/svg"
   xmlns:sodipodi="http://sodipodi.sourceforge.net/DTD/sodipodi-0.dtd"
   xmlns:inkscape="http://www.inkscape.org/namespaces/inkscape"
   id="svg"
   version="1.1"
   width="188.53365"
   height="188.67036"
   viewBox="0 0 188.53365 188.67037"
   inkscape:version="0.91 r13725"
   sodipodi:docname="mountDay.svg">
  <metadata
     id="metadata4159">
    <rdf:RDF>
      <cc:Work
         rdf:about="">
        <dc:format>image/svg+xml</dc:format>
        <dc:type
           rdf:resource="http://purl.org/dc/dcmitype/StillImage" />
        <dc:title></dc:title>
      </cc:Work>
    </rdf:RDF>
  </metadata>
  <defs
     id="defs4157" />
  <sodipodi:namedview
     pagecolor="#ffffff"
     bordercolor="#666666"
     borderopacity="1"
     objecttolerance="10"
     gridtolerance="10"
     guidetolerance="10"
     inkscape:pageopacity="0"
     inkscape:pageshadow="2"
     inkscape:window-width="1366"
     inkscape:window-height="715"
     id="namedview4155"
     showgrid="false"
     fit-margin-top="0"
     fit-margin-left="0"
     fit-margin-right="0"
     fit-margin-bottom="0"
     inkscape:zoom="0.89"
     inkscape:cx="194.25986"
     inkscape:cy="94.311841"
     inkscape:window-x="-8"
     inkscape:window-y="-8"
     inkscape:window-maximized="1"
     inkscape:current-layer="svg" />
  <path
     style="fill:#0d0d0d;fill-rule:evenodd;stroke:none"
     d="m 92.136818,0.01443327 c -1.90075,0.0245 -3.78775,0.081625 -5.53125,0.171875 -1.521,0.079 -3.698844,0.2916094 -4.839844,0.4746094 -1.141,0.182 -3.144172,0.48959373 -4.451171,0.68359373 -1.308001,0.194 -2.551626,0.4465469 -2.765626,0.5605469 -0.212999,0.114 -1.175671,0.3532031 -2.138671,0.5332031 -0.963,0.18 -2.078516,0.4591406 -2.478516,0.6191406 -0.4,0.16 -1.389219,0.4600157 -2.199219,0.6660157 -1.363,0.348 -1.903453,0.5103437 -4.189453,1.2773437 -1.906,0.6389995 -3.266375,1.1563755 -4.234375,1.6093745 -0.563,0.264 -1.150687,0.480469 -1.304687,0.480469 -0.153,0 -0.675157,0.21075 -1.160157,0.46875 -0.485,0.258 -1.098281,0.537094 -1.363281,0.621094 -0.264,0.084 -0.811797,0.361187 -1.216797,0.617187 -0.405,0.255001 -0.858812,0.466797 -1.007812,0.466797 -0.149,0 -0.706282,0.235391 -1.238282,0.525391 -0.532,0.2900001 -1.733874,0.9355941 -2.671874,1.4335941 -4.375,2.322 -10.999579,6.816328 -15.267579,10.361328 -5.761,4.784 -10.963687,10.304047 -15.554687,16.498047 -1.874,2.529 -5.860563,8.685625 -6.726563,10.390625 -0.165,0.325 -0.931125,1.826937 -1.703125,3.335937 -0.7710001,1.509 -1.7213281,3.50836 -2.1113281,4.44336 -0.39,0.936 -0.838047,1.941375 -0.998047,2.234375 -0.159,0.293 -0.498906,1.137953 -0.753906,1.876953 -0.526,1.526 -2.0997968,6.180062 -2.5917968,7.664062 -0.1799999,0.543 -0.455375,1.65375 -0.609375,2.46875 -0.1539999,0.815 -0.4521093,1.977985 -0.6621093,2.583985 -0.209,0.607 -0.4795625,1.897234 -0.6015625,2.865234 -0.123,0.969 -0.3508594,2.219344 -0.5058594,2.777344 C 0.73786486,80.601418 -0.00990074,89.902199 9.9259577e-5,94.399199 0.00809926,98.065194 0.57938046,106.00671 0.98838046,108.12771 c 0.10400004,0.543 0.33000004,1.83128 0.50000004,2.86328 0.171,1.032 0.4833125,2.58803 0.6953125,3.45703 0.212,0.869 0.5167813,2.20189 0.6757813,2.96289 0.48,2.297 3.6154996,11.9208 4.0624996,12.4668 0.098,0.12 0.346782,0.6972 0.550782,1.2832 0.349,1.005 3.3350621,7.13841 4.4140621,9.06641 1.327,2.371 1.980719,3.46975 2.511719,4.21875 0.318,0.45 0.909453,1.34995 1.314453,2.00195 3.931,6.326 12.655,15.98644 18.875,20.89844 1.788,1.412 3.860563,3.01677 4.851563,3.75977 1.048,0.786 5.702484,3.81329 6.771484,4.40429 0.489,0.271 1.332,0.75132 1.875,1.07032 1.424,0.837 7.446547,3.81787 9.185547,4.54687 3.197,1.341 8.109156,3.11742 9.285156,3.35742 0.489,0.1 1.199078,0.31166 1.580078,0.47266 0.87,0.367 5.31725,1.44683 7.40625,1.79883 0.869,0.146 2.201891,0.40236 2.962891,0.56836 0.76,0.166 2.804969,0.43465 4.542968,0.59765 1.738,0.164 4.095329,0.40421 5.236329,0.53321 2.541,0.29 8.326299,0.28523 11.654299,-0.01 8.603995,-0.76 10.548725,-0.98978 11.052725,-1.30078 0.088,-0.054 0.80003,-0.18978 1.58203,-0.30078 1.966,-0.279 6.43672,-1.33735 7.51172,-1.77735 0.489,-0.201 1.42222,-0.49715 2.07422,-0.66015 0.652,-0.162 2.07511,-0.61577 3.16211,-1.00977 1.086,-0.395 2.46355,-0.88294 3.06055,-1.08594 1.258,-0.427 4.33672,-1.73765 4.63672,-1.97265 0.112,-0.089 0.56014,-0.27216 0.99414,-0.41016 0.435,-0.137 1.14412,-0.44936 1.57812,-0.69336 0.435,-0.244 1.45844,-0.79947 2.27344,-1.23047 4.804,-2.545 8.99912,-5.16964 12.07812,-7.55664 0.63,-0.489 1.46166,-1.11081 1.84766,-1.38281 4.768,-3.354 12.91134,-11.44025 17.02734,-16.90625 1.87,-2.484 2.3285,-3.12827 3.4375,-4.82227 0.605,-0.924 1.27052,-1.93409 1.47852,-2.24609 1.115,-1.675 1.49808,-2.27989 1.95508,-3.08789 0.277,-0.489 0.81526,-1.42026 1.19726,-2.07226 0.381,-0.652 0.82528,-1.49696 0.98828,-1.87696 0.162,-0.38 0.38229,-0.84711 0.48829,-1.03711 0.106,-0.19 0.27971,-0.5014 0.38671,-0.6914 0.521,-0.927 2.57227,-5.42558 2.57227,-5.64258 0,-0.137 0.18606,-0.60125 0.41406,-1.03125 0.228,-0.43 0.57353,-1.27114 0.76953,-1.86914 0.196,-0.597 0.53305,-1.53122 0.74805,-2.07422 0.838,-2.125 1.522,-4.45114 2.5,-8.49414 0.184,-0.76 0.50303,-2.00563 0.70703,-2.76563 0.204,-0.761 0.47266,-2.09389 0.59766,-2.96289 0.125,-0.869 0.351,-2.20289 0.5,-2.96289 1.256,-6.386 1.3097,-22.224822 0.0957,-28.048822 -0.204,-0.978 -0.429,-2.311891 -0.5,-2.962891 -0.222,-2.034 -2.28995,-10.34164 -2.87695,-11.556641 -0.184,-0.379999 -0.3938,-1.017968 -0.4668,-1.417968 -0.073,-0.4 -0.53906,-1.7785 -1.03906,-3.0625 -0.499,-1.283 -1.05438,-2.733657 -1.23438,-3.222656 -0.502,-1.365001 -3.40734,-7.351172 -4.52734,-9.326172 -0.29,-0.513 -0.95742,-1.703485 -1.48242,-2.646485 -0.525,-0.943 -1.25791,-2.167656 -1.62891,-2.722656 -2.325,-3.477 -2.84928,-4.224938 -3.73828,-5.335937 -0.543,-0.679001 -1.34234,-1.747047 -1.77734,-2.373047 -2.839,-4.092 -11.38166,-12.501032 -16.97266,-16.707032 -0.505,-0.38 -1.26259,-0.966734 -1.68359,-1.302734 -0.42,-0.336 -1.54977,-1.128672 -2.50977,-1.763672 -0.961,-0.634 -2.11731,-1.404937 -2.57031,-1.710937 -0.452,-0.306 -0.89156,-0.554688 -0.97656,-0.554688 -0.147,0 -0.82088,-0.418937 -2.54688,-1.585937 -0.434,-0.294 -1.0112,-0.601641 -1.2832,-0.681641 -0.271,-0.081 -0.89481,-0.382875 -1.38281,-0.671875 -1.619,-0.9590001 -1.88091,-1.0967971 -3.75391,-1.9667971 -3.323,-1.543 -3.94341,-1.810547 -4.19141,-1.810547 -0.147,0 -0.61978,-0.185156 -1.05078,-0.410156 -0.741,-0.388 -2.12089,-0.915203 -4.33789,-1.6582031 -0.543,-0.182 -1.56353,-0.5399219 -2.26953,-0.7949219 -0.707,-0.255 -1.8187,-0.5920469 -2.4707,-0.7480469 -0.651,-0.156 -1.89663,-0.4702656 -2.76563,-0.6972656 -3.189,-0.832 -4.21159,-1.0453906 -7.30859,-1.5253906 -1.738,-0.27000003 -3.6481,-0.57564073 -4.2461,-0.68164073 -2.4015,-0.42375 -8.223525,-0.6340468 -13.925772,-0.5605468 z m 1.175781,3.15625003 c 0.212,-0.018 2.301576,0.058969 4.642576,0.1679687 5.110995,0.24 8.449275,0.524 10.238275,0.875 0.729,0.142 1.99164,0.3689531 2.80664,0.5019531 0.815,0.1340001 2.01502,0.3761094 2.66602,0.5371094 0.652,0.161 1.89858,0.4553434 2.76758,0.6523434 2.502,0.568 5.67412,1.483172 6.32812,1.826172 0.329,0.172 0.95086,0.378985 1.38086,0.458985 0.429,0.081 1.3138,0.400984 1.9668,0.708984 0.653,0.309 1.3157,0.560547 1.4707,0.560547 0.156,0 0.64394,0.166141 1.08594,0.36914 0.441,0.2030001 1.4692,0.6701101 2.2832,1.0371101 5.777,2.607 12.94743,6.73189 16.23243,9.33789 0.28999,0.230001 1.08934,0.83475 1.77734,1.34375 2.665,1.975001 3.63139,2.750329 5.27539,4.236329 3.011,2.721 6.73203,6.435406 8.58203,8.566406 0.99,1.141 1.95553,2.25175 2.14453,2.46875 0.705,0.808 2.09594,2.601297 2.83594,3.654297 1.259,1.793 3.51597,5.196609 4.04297,6.099609 0.272,0.465 0.68115,1.083047 0.91015,1.373047 0.23,0.29 0.48632,0.748531 0.57032,1.019531 0.083,0.272 0.32415,0.73911 0.53515,1.03711 0.528,0.75 4.10742,7.942906 4.10742,8.253906 0,0.139 0.26775,0.817812 0.59376,1.507812 0.32599,0.689 0.59179,1.367813 0.59179,1.507813 0,0.139 0.17939,0.605156 0.40039,1.035156 0.22,0.431 0.53141,1.284485 0.69141,1.896484 0.159,0.612 0.46664,1.50061 0.68164,1.97461 0.215,0.474 0.39253,1.057875 0.39453,1.296875 0.003,0.239 0.26408,1.260484 0.58008,2.271484 0.777,2.482 1.39231,5.048266 1.69531,7.072266 0.138,0.924 0.39336,2.388812 0.56836,3.257812 1.441,7.17 1.40869,20.675447 -0.0703,28.939447 -1.369,7.648 -2.23827,10.66602 -3.07227,10.66602 -0.134,0 -1.68903,-1.42497 -3.45703,-3.16797 -2.019,-1.99 -3.81131,-3.56256 -4.82031,-4.22656 -1.044,-0.688 -2.60589,-2.06927 -4.46289,-3.94727 -7.395,-7.482 -9.59955,-8.395726 -13.68555,-5.67773 -2.964,1.972 -3.16617,2.07106 -4.45117,2.16406 l -1.25586,0.0898 -1.18359,-1.24414 c -1.099,-1.154 -1.61296,-1.82383 -2.62696,-3.42383 -2.415,-3.810996 -8.33703,-9.251804 -13.20703,-12.132804 -2.638,-1.56 -6.99739,-5.570031 -18.02539,-16.582031 -4.739,-4.733 -5.29572,-5.183594 -6.38672,-5.183594 -1.234,0 -4.9487,1.933328 -9.095695,4.736328 -2.113,1.428 -5.375391,3.685922 -6.025391,4.169922 -0.434,0.323 -1.073922,0.784391 -1.419922,1.025391 -0.345,0.239999 -1.469047,1.081187 -2.498047,1.867187 -2.208,1.687 -2.661187,1.887891 -3.867188,1.712891 -0.959999,-0.139 -4.652234,-1.286969 -5.365234,-1.667969 -4.401,-2.356 -8.821484,-0.75686 -14.146484,5.119141 -2.077,2.290999 -8.064547,7.462937 -10.810547,9.335937 -0.986,0.673 -2.01511,1.392656 -2.287109,1.597656 -4.617,3.482999 -6.187141,3.778109 -8.869141,1.662109 -5.841,-4.609999 -9.479438,-3.409187 -15.148438,5.007806 -4.53,6.725 -7.625234,10.35364 -9.115234,10.68164 -2.086,0.459 -8.8312501,6.16438 -10.0312501,8.48438 -1.2,2.321 -2.725594,-1.92661 -4.433594,-12.34961 -1.3539997,-8.256996 -1.1254216,-25.256997 0.392578,-29.249997 0.11,-0.289 0.288485,-1.161546 0.396485,-1.935547 0.253,-1.811 1.549297,-7.168953 1.904297,-7.876953 0.15,-0.299 0.35789,-0.995828 0.46289,-1.548828 0.174,-0.92 1.228282,-3.981062 1.863281,-5.414062 0.144001,-0.326 0.321532,-0.814938 0.394532,-1.085938 0.3010001,-1.12 3.3727031,-7.720953 4.5957031,-9.876953 1.046,-1.845 2.593266,-4.411781 3.572265,-5.925781 0.597001,-0.923 1.316657,-2.03375 1.597657,-2.46875 3.847,-5.959 14.063859,-16.663688 19.380859,-20.304688 0.48899,-0.33496 1.352912,-0.970069 1.919912,-1.412069 1.627,-1.266 5.456094,-3.822937 7.246094,-4.835938 5.729,-3.243999 11.270187,-5.8079841 16.117187,-7.4589841 0.489,-0.167 1.333953,-0.467969 1.876953,-0.667969 1.435,-0.53 4.526047,-1.385265 6.123047,-1.697265 0.76,-0.148 1.64861,-0.3673284 1.97461,-0.4863284 0.326,-0.119 2.060515,-0.4788281 3.853515,-0.7988281 1.793,-0.32 3.657485,-0.6560469 4.146485,-0.7480469 0.489,-0.091 2.846328,-0.2704843 5.236328,-0.3964844 2.39,-0.1269999 4.6115,-0.2541562 4.9375,-0.2851562 0.326,-0.031 0.765515,-0.070891 0.978515,-0.087891 z M 111.85752,74.244902 c 0.48814,-0.0413 1.04242,0.296719 1.79492,1.042969 0.575,0.571 2.63608,2.561781 4.58008,4.425781 1.944,1.864 4.65343,4.46625 6.02343,5.78125 2.489,2.391 3.26619,3.450578 4.86719,6.642578 0.244,0.487 0.73194,1.061297 1.08594,1.279297 l 0.64453,0.398438 0.5918,-0.6875 c 0.95,-1.099 1.48843,-1.196453 2.39843,-0.439453 0.419,0.347999 1.28007,1.024859 1.91407,1.505859 1.858,1.405 5.30503,5.226933 6.95703,7.710929 0.831,1.249 1.85162,2.6389 2.26562,3.0879 0.702,0.762 1.12124,1.33885 2.36524,3.25585 0.829,1.275 3.20137,4.98622 3.48437,5.44922 0.427,0.699 1.57592,0.81666 2.16992,0.22266 l 0.48243,-0.48047 -0.41407,-0.87891 c -0.228,-0.483 -0.76531,-1.36784 -1.19531,-1.96484 -1.786,-2.483 -1.97231,-3.05134 -1.07031,-3.27734 0.879,-0.221 1.41847,0.0707 2.10547,1.13867 1.954,3.035 2.32308,3.63501 2.33008,3.79101 0.005,0.093 0.36292,0.59238 0.79492,1.10938 0.866,1.034 0.72176,0.95541 8.63476,4.69141 2.622,1.237 1.45393,-0.78779 -3.70508,-6.42579 -1.36799,-1.495 -1.58309,-2.18246 -1.24609,-3.98046 0.315,-1.686 1.25822,-2.29386 1.94922,-1.25586 0.109,0.163 0.55423,0.84271 0.99023,1.51171 0.436,0.66801 1.19169,1.74749 1.67969,2.39649 0.488,0.65 1.06425,1.46264 1.28125,1.80664 0.67,1.061 1.1166,1.68666 2.5586,3.59766 0.766,1.014 1.61571,2.17884 1.88671,2.58984 0.496,0.749 1.085,1.60031 2.125,3.07031 1.637,2.31 3.75386,0.58221 2.25586,-1.84179 -1.708,-2.763 -1.68706,-2.72338 -1.53906,-3.10938 0.207,-0.539 3.14528,2.24372 6.61328,6.26172 0.694,0.805 0.8518,2.12256 0.3418,2.85156 -0.153,0.217 -0.38367,0.79235 -0.51367,1.27735 -0.131,0.486 -0.49555,1.3727 -0.81055,1.9707 -0.314,0.597 -0.57227,1.17425 -0.57227,1.28125 0,0.107 -0.21546,0.63859 -0.48046,1.18359 -0.265,0.545 -0.97418,2.01272 -1.57618,3.26172 -2.756,5.724 -3.8931,7.50586 -4.7871,7.50586 -0.765,0 -0.79607,-0.0614 -0.28907,-0.56836 0.517,-0.518 0.33391,-1.31056 -0.37109,-1.60156 l -0.54883,-0.22852 0.28516,-1.09375 c 0.312,-1.196 0.18784,-2.15333 -0.53516,-4.11133 -0.549,-1.48799 -0.76795,-2.47801 -0.75195,-3.41601 0.009,-0.504 -0.10807,-0.98455 -0.28906,-1.18555 -0.16801,-0.186 -0.36065,-0.60468 -0.43165,-0.92968 -0.19,-0.87601 -0.72768,-2.07422 -0.92968,-2.07422 -0.519,0 -1.1741,1.02295 -1.1211,1.75195 0.038,0.535 -0.0709,0.91069 -0.38086,1.30469 -0.262,0.333 -0.43359,0.8299 -0.43359,1.2539 0,0.438 -0.15416,0.86472 -0.41016,1.13672 -0.337,0.359 -0.41898,0.73189 -0.45898,2.08789 -0.034,1.126 -0.16325,1.86608 -0.40625,2.33008 -0.274,0.524 -0.30377,0.7583 -0.13477,1.0293 0.821,1.314 0.48819,2.33984 -0.75781,2.33984 -0.627,0 -2.39542,-0.45812 -2.23242,-0.57812 1.569,-1.159 1.42873,-2.50618 -0.32227,-3.07618 -1.033,-0.336 -1.05406,-0.35796 -0.66406,-0.66796 0.221,-0.176 0.63397,-0.6953 0.91797,-1.1543 l 0.51758,-0.83594 -0.54297,-0.33984 c -0.299,-0.187 -0.58191,-0.36539 -0.62891,-0.40039 -0.047,-0.034 0.10871,-0.32453 0.34571,-0.64453 0.584,-0.79 0.5512,-0.92391 -0.3418,-1.37891 -0.85,-0.434 -1.03825,-0.73047 -0.78125,-1.23047 0.121,-0.235 0.0286,-0.49816 -0.31836,-0.91016 -0.728,-0.866 -0.90225,-1.47143 -0.65625,-2.27343 0.282,-0.919 0.0652,-1.6756 -0.58984,-2.0586 -0.347,-0.204 -0.79458,-0.86323 -1.26758,-1.86523 -0.818,-1.731 -1.06677,-1.85345 -1.88477,-0.93945 -0.906,1.011 -1.20756,1.74246 -0.97656,2.35546 0.25,0.662 0.0679,1.1836 -0.41211,1.1836 -0.883,0 -1.13644,0.46206 -0.77344,1.41406 0.484,1.266 0.4508,1.35156 -0.5332,1.35156 -0.918,0 -1.10742,0.18871 -1.10742,1.09571 0,0.269 0.16953,0.56164 0.39453,0.68164 0.567,0.304 0.48778,0.84551 -0.19922,1.35351 -0.503,0.371 -0.56377,0.50294 -0.38477,0.83594 0.278,0.52 0.0892,1.06012 -0.50976,1.45312 -0.303,0.19801 -0.48633,0.50351 -0.48633,0.8125 0,0.838 -2.17239,0.78011 -3.27539,-0.0879 l -0.48633,-0.38085 0.81055,-0.13672 c 0.739,-0.125 1.05522,-0.34158 2.94922,-2.01758 0.304,-0.269 -0.80263,-0.64649 -1.89063,-0.64649 -0.938,0 -1.2537,-0.0745 -1.3457,-0.31445 -0.173,-0.451 0.0256,-0.67383 0.60156,-0.67383 0.626,0 1.64844,-1.04745 1.64844,-1.68945 0,-0.546 -0.9002,-0.87495 -2.4082,-0.87695 -0.51,0 -0.97516,-0.0797 -1.03516,-0.17774 -0.124,-0.2 0.33095,-0.41601 0.87695,-0.41601 1.111,0 1.26993,-1.26375 0.29493,-2.34375 -0.755,-0.836 -0.8049,-1.13407 -0.46289,-2.78907 0.323,-1.563 -0.21866,-3.24009 -0.84766,-2.62109 -0.596,0.589 -0.82194,0.29517 -0.71094,-0.92383 0.089,-0.984 0.0444,-1.22676 -0.26758,-1.50976 -0.205,-0.186 -0.48028,-0.63982 -0.61328,-1.00782 -0.335,-0.925 -1.065,-1.10253 -1.625,-0.39453 -1.342,1.695 -1.35219,1.71425 -1.24219,2.53125 0.058,0.437 0.24888,0.94863 0.42188,1.14063 0.36,0.397 -0.0892,1.0039 -0.74219,1.0039 -1.39,0 -1.48137,2.80114 -0.10937,3.36914 0.895,0.371 0.38603,0.67522 -1.16797,0.69922 -1.851,0.029 -1.81836,0.0177 -1.81836,0.63867 0,0.392 0.14537,0.63832 0.48437,0.82032 1.077,0.576 1.29638,1.83726 0.35938,2.07226 -1.099,0.276 -1.20386,0.72467 -0.38086,1.63868 l 0.4043,0.44921 -1.07618,1.00977 -1.07421,1.00976 1.23437,1.11719 c 1.64,1.486 1.62234,1.915 -0.0977,2.375 -1.013,0.27 -1.27837,0.89852 -0.73437,1.72852 0.339,0.518 0.33608,0.5345 -0.16992,0.9375 -0.704,0.562 -0.53075,1.05914 0.65625,1.86914 1.141,0.779 1.04812,1.27647 -0.29688,1.60547 -0.435,0.106 -1.04065,0.32528 -1.34765,0.48828 -0.59,0.311 -1.61252,0.35161 -2.60352,0.0996 -0.575,-0.147 -0.57617,-0.15378 -0.0762,-0.17578 0.396,-0.018 0.67861,-0.27419 1.22461,-1.11719 l 0.71094,-1.0957 -0.63282,-0.38868 c -0.348,-0.214 -0.96318,-0.49028 -1.36718,-0.61328 l -0.73243,-0.22461 0.8711,-1.09765 c 0.985,-1.241 0.93593,-1.53447 -0.28907,-1.73047 l -0.73437,-0.11719 0.79102,-0.73828 c 0.89,-0.831 0.86584,-0.98103 -0.28516,-1.70703 -0.463,-0.292 -0.77095,-0.63303 -0.75195,-0.83203 0.08,-0.801 -0.0418,-1.23116 -0.50782,-1.78516 -0.461,-0.547 -0.48714,-0.69108 -0.36914,-1.95508 0.123,-1.331 0.11014,-1.38198 -0.50586,-2.08398 -0.347,-0.395 -0.71726,-1.03111 -0.82226,-1.41211 -0.74,-2.681 -3.21538,-2.20049 -3.10938,0.60351 0.032,0.82901 -0.0348,0.99304 -0.58984,1.45704 -0.673,0.561 -0.88563,1.83312 -0.39063,2.32812 0.313,0.314 0.1755,0.41436 -0.9375,0.69336 -1.151,0.289 -1.24426,0.50183 -0.57226,1.29883 l 0.51758,0.61719 -0.41211,0.66601 c -0.261,0.424 -0.41016,0.99908 -0.41016,1.58008 0,0.767 -0.0957,0.99636 -0.59766,1.44336 l -0.59765,0.5332 0.99219,0.94727 c 1.253,1.194 1.2529,1.4718 0.004,1.8418 -0.867,0.257 -1.16492,0.65839 -1.04492,1.40039 0.199,1.226 -1.31887,1.67954 -3.54687,1.06054 -0.731,-0.203 -1.10757,-0.97656 -0.47657,-0.97656 0.145,0 0.50102,-0.26775 0.79102,-0.59375 0.29,-0.326 0.6128,-0.59375 0.7168,-0.59375 0.104,0 0.29292,-0.19273 0.41992,-0.42773 0.354,-0.662 -0.21982,-0.95404 -1.88282,-0.95704 -1.575,-0.004 -2.34876,-0.27914 -1.38476,-0.49414 1.405,-0.314 1.90272,-0.56521 2.38672,-1.19922 0.794,-1.04099 -0.29089,-1.76264 -3.08789,-2.05664 l -1.28516,-0.13476 1.19531,-0.0312 c 1.9,-0.049 2.19438,-0.75283 0.85938,-2.04883 -0.741,-0.719 -0.79874,-0.84681 -0.67774,-1.50781 0.073,-0.397 0.17938,-1.2666 0.23438,-1.9336 l 0.0996,-1.21289 -0.9043,-0.3457 c -0.853,-0.325 -0.90429,-0.38789 -0.90429,-1.08789 0,-0.545 -0.13677,-0.86503 -0.50977,-1.20703 -0.279,-0.255 -0.67777,-0.84745 -0.88477,-1.31445 -0.465,-1.043 -0.72673,-0.95613 -2.05273,0.67187 -0.966,1.186 -1.1447,2.00738 -0.5957,2.73438 0.47,0.621 0.33922,0.8569 -0.55079,1.0039 -1.378,0.227 -1.69315,0.87963 -1.03515,2.14063 0.434,0.832 0.37106,1.24853 -0.21094,1.39453 -1.213,0.304 -2.44272,-0.36606 -2.13672,-1.16406 0.134,-0.35 -0.43103,-1.0918 -0.83203,-1.0918 -0.308,0 -0.60703,-0.8455 -0.33203,-0.9375 1.523,-0.507 0.83427,-1.43769 -1.42773,-1.92969 l -0.5918,-0.12891 0.64062,-0.27148 c 0.851,-0.359 0.83722,-0.92792 -0.0508,-2.04492 -0.785,-0.988 -0.79753,-1.05036 -0.39453,-2.19336 0.423,-1.197 0.3952,-1.30367 -0.5918,-2.26367 -0.628,-0.61 -0.88867,-1.0213 -0.88867,-1.4043 0,-0.53 -1.43592,-2.6543 -1.79492,-2.6543 -0.771995,0 -1.766185,2.79671 -1.367185,3.84571 0.174,0.458 0.1373,0.53112 -0.3457,0.70312 -1.256,0.445 -1.45948,0.88294 -1.02148,2.21094 0.305,0.922 0.14639,1.13025 -0.97461,1.28125 -1.098,0.147 -1.39614,0.52361 -0.86914,1.09961 0.865,0.947 1.07314,1.63297 0.61914,2.04297 -0.641,0.58 -0.80555,1.0127 -0.56055,1.4707 0.188,0.351 0.10892,0.50377 -0.58008,1.13477 -1.055999,0.968 -0.51355,1.97115 1.43945,2.66015 0.447,0.158 -0.1449,0.94016 -0.8789,1.16016 -0.996,0.298 -1.20563,0.56261 -1.26563,1.59961 -0.027,0.463 -0.11626,1.12375 -0.19726,1.46875 -0.143003,0.61 -0.114956,0.64308 0.99804,1.20508 l 1.14258,0.58007 -1.01172,0.33594 c -2.331996,0.774 -2.837309,1.69997 -1.320309,2.41797 1.949999,0.924 1.897349,2.03892 -0.09766,2.04492 -2.53,0.007 -2.37325,1.67903 0.21875,2.33203 2.155009,0.542 1.628489,1.41797 -0.853516,1.41797 -1.653,0 -1.550406,1.15478 0.183594,2.05078 1.122001,0.58 0.522109,1.29969 -1.087891,1.30469 -0.567999,0.002 -1.396796,0.15013 -1.841796,0.32813 -1.551,0.621 -2.345219,-0.56838 -2.324219,-3.48438 0.009,-1.175 -0.09013,-1.9177 -0.328125,-2.4707 -0.491,-1.14 -0.662797,-1.74975 -1.091797,-3.84375 -0.919,-4.49 -1.510594,-5.10239 -2.433594,-2.52539 -0.658,1.836 -0.676875,1.93451 -0.921875,4.97851 -0.145,1.818 -0.317703,2.7961 -0.595703,3.3711 -0.216,0.446 -0.392578,0.89981 -0.392578,1.00781 0,0.755 -0.521375,0.92998 -1.359375,0.45898 -0.993,-0.558 -1.1065,-0.9155 -0.9375,-2.9375 0.115,-1.382 0.08,-1.61304 -0.375,-2.49804 -0.609,-1.182 -1.156109,-3.25921 -1.787109,-6.78321 -0.566,-3.156 -1.292204,-4.4069 -2.033203,-3.5039 -0.273,0.333 -1.607422,4.4062 -1.607422,4.9082 0,0.236 -0.174672,1.05622 -0.388672,1.82422 -0.215,0.767 -0.471313,2.12553 -0.570313,3.01953 -0.374,3.365 -1.333515,4.11958 -4.478515,3.51758 -2.266,-0.433 -2.936078,-1.50574 -2.455078,-3.92774 0.243999,-1.226 0.236953,-1.27528 -0.373047,-2.61328 -0.631,-1.385 -1.590328,-4.45728 -1.986329,-6.36328 -0.12,-0.576 -0.339234,-1.28708 -0.490234,-1.58008 -0.15,-0.293 -0.333203,-0.90347 -0.408203,-1.35547 -0.272,-1.63599 -1.668719,-1.87328 -2.136719,-0.36328 -0.102,0.325 -0.391531,1.12535 -0.644531,1.77735 -0.421,1.082 -0.592812,2.17595 -1.257813,8.00195 -0.07,0.612 -0.306062,1.34869 -0.539062,1.67969 -0.243,0.345 -0.455672,1.02658 -0.513672,1.64258 -0.26,2.801 -1.76189,2.1272 -2.71289,-1.2168 -0.211,-0.743 -0.59361,-1.71888 -0.84961,-2.17188 -0.396,-0.701 -0.437437,-0.93364 -0.273437,-1.55664 0.17,-0.648 0.142093,-0.77275 -0.253907,-1.09375 -0.429,-0.347 -0.434437,-0.39412 -0.148437,-1.07812 0.294,-0.703 0.287656,-0.72452 -0.277344,-1.22852 -0.643,-0.572 -0.683078,-0.73478 -0.330078,-1.30078 0.195,-0.313 0.195,-0.47315 0,-0.78515 -0.135,-0.216 -0.246094,-0.74193 -0.246094,-1.16993 0,-0.52 -0.150078,-0.96293 -0.455078,-1.33593 -0.417,-0.511 -0.606531,-1.22571 -1.019531,-3.84571 -0.134,-0.846 -1.528797,-2.54101 -2.091797,-2.54101 -0.525,0 -0.95725,0.94715 -1.15625,2.53515 -0.093,0.741 -0.296125,1.60583 -0.453125,1.92383 -0.156,0.317 -0.248078,0.73574 -0.205078,0.92774 0.043,0.191 -0.07095,0.79384 -0.251953,1.33984 -0.32,0.965 -0.32286,2.32753 -0.0059,3.26953 0.099,0.295 0.0012,0.57861 -0.339843,0.97461 -0.415,0.482 -0.4575,0.65969 -0.3125,1.30469 0.13,0.58 0.07858,0.97858 -0.232422,1.76758 -0.367,0.929 -0.37561,1.05847 -0.09961,1.48046 0.406,0.619 0.414532,0.59907 -0.480468,1.16407 -0.898,0.566 -0.891422,1.04165 0.01758,1.22265 0.592,0.119 0.867547,1.05274 0.310547,1.05274 -0.557,0 -0.993438,0.50834 -0.773438,0.90234 0.297,0.532 -0.03092,1.01578 -0.794922,1.17578 -0.354,0.073 -0.838125,0.25721 -1.078125,0.40821 -0.856,0.542 -1.70764,-0.0991 -1.93164,-1.45313 -0.076,-0.465 -0.338032,-1.22069 -0.582032,-1.67969 -0.302,-0.568 -0.487078,-1.36432 -0.580078,-2.48632 -0.076,-0.908 -0.267734,-1.96371 -0.427734,-2.34571 -0.159,-0.381 -0.289063,-1.05219 -0.289063,-1.49218 0,-0.46001 -0.248984,-1.35261 -0.583984,-2.09961 -0.32,-0.715 -0.6865,-1.82766 -0.8125,-2.47266 -0.532,-2.724 -2.313609,-3.11566 -2.724609,-0.59766 -0.105,0.648 -0.297782,1.44549 -0.425782,1.77149 -0.571,1.451 -0.814218,2.79928 -0.699218,3.86328 0.084,0.768 0.02931,1.31245 -0.179688,1.81445 -0.173,0.412 -0.249594,0.96288 -0.183594,1.29688 0.065,0.325 0.0063,0.78682 -0.136718,1.04883 -0.279,0.51499 -0.417813,1.81965 -0.382813,3.59765 0.022,1.102 -1.405187,3.88477 -1.992187,3.88477 -0.392,0 -0.933641,-1.0861 -1.056641,-2.1211 -0.075,-0.626 -0.306625,-1.47376 -0.515625,-1.88476 -0.227,-0.444 -0.380859,-1.14933 -0.380859,-1.73633 0,-0.579 -0.155047,-1.29366 -0.373047,-1.72266 -0.205,-0.403 -0.468031,-1.33526 -0.582032,-2.07226 -0.198,-1.278 -0.701687,-2.39744 -1.304687,-2.89844 -0.431,-0.357 -1.178344,1.10937 -1.777344,3.48437 -0.279,1.10801 -0.586593,2.22157 -0.683593,2.47657 -0.114001,0.301 -0.09073,0.71745 0.07227,1.18945 0.212,0.616 0.204313,0.79406 -0.05469,1.16406 -0.169,0.24 -0.332282,0.79919 -0.363282,1.24219 -0.149,2.1 -0.26614,2.94222 -0.49414,3.57422 -0.193,0.533 -0.195719,0.73883 -0.01172,0.92383 0.411,0.41 0.260594,1.02015 -0.441406,1.78515 -0.837,0.911 -1.067469,0.84477 -2.105469,-0.61523 -0.434,-0.611 -1.178297,-1.64292 -1.654297,-2.29492 -0.476,-0.652 -1.460453,-2.16438 -2.189453,-3.35938 -0.729,-1.195 -1.535969,-2.45478 -1.792969,-2.80078 -0.257,-0.346 -0.46875,-0.71245 -0.46875,-0.81445 0,-0.101 -0.163234,-0.3953 -0.365234,-0.6543 -0.202,-0.259 -0.952016,-1.62606 -1.666016,-3.03906 -3.233,-6.392 -3.7695621,-7.9766 -2.601562,-7.68359 0.659,0.16499 1.010656,-0.16546 2.597656,-2.43946 0.702,-1.005 1.358984,-1.82617 1.458984,-1.82617 0.41,0 0.952578,0.8143 1.267579,1.9043 0.571,1.978 1.442062,2.23303 2.414062,0.70703 0.189,-0.297 0.850703,-1.16188 1.470703,-1.92188 2.413,-2.964 2.709578,-3.14361 3.267578,-1.97461 0.555,1.164 1.607391,0.69788 2.150391,-0.95312 0.341,-1.037 0.557015,-1.31141 1.041016,-1.31641 0.484,-0.005 0.07028,4.6658 -0.761719,8.5918 -0.302,1.423 -0.101782,2.4565 0.449219,2.3125 0.637,-0.166 1.342109,-0.95417 6.662109,-7.45117 1.141,-1.393 2.563109,-3.07338 3.162109,-3.73438 5.557,-6.132 5.874625,-6.7167 4.390625,-8.0957 -1.752,-1.629 -2.862312,-2.57541 -3.445312,-2.94141 -0.841,-0.527 -0.944313,-1.34414 -0.945313,-7.36914 -0.001,-5.341996 0.01334,-5.564006 0.402344,-5.916006 0.892,-0.807003 2.539203,-0.16303 4.908203,1.91797 1.439,1.264 2.914609,1.94336 4.224609,1.94336 1.640001,0 2.098219,0.227476 4.824219,2.396476 1.415,1.126 3.003344,2.35828 3.527344,2.73828 1.238,0.898 1.870922,2.0337 2.419922,4.3457 0.825,3.469 1.508297,4.02161 3.529297,2.84961 1.642,-0.952 2.094359,-0.5859 2.318359,1.8711 0.135,1.477 0.292172,1.71734 1.326172,2.02734 1.1,0.329 1.273766,0.60974 0.884766,1.42773 -0.556,1.17301 0.643187,3.28126 1.867187,3.28126 0.087,0 1.824375,1.11075 3.859375,2.46874 2.036,1.35801 3.760984,2.47071 3.833985,2.47071 0.240999,0 0.589843,-0.9966 0.589843,-1.6836 0,-1.459 1.367563,-1.20056 2.101563,0.39844 1.021,2.224 2.965109,4.9375 3.537109,4.9375 0.678,0 0.667313,0.0438 1.070313,-4.74023 0.128,-1.521 0.398562,-3.83177 0.601562,-5.13477 0.203,-1.304 0.421328,-3.08217 0.486328,-3.95117 0.172,-2.29 0.470969,-5.04659 0.792969,-7.30859 0.395,-2.772 0.6945,-6.48138 0.5625,-6.98438 -0.258,-0.986 -0.855359,-0.4778 -1.943359,1.6582 -1.759,3.453 -2.779125,3.21849 -2.078125,-0.47851 0.107,-0.56 0.290203,-2.549876 0.408203,-4.421876 0.227,-3.611996 0.489312,-6.496731 0.695312,-7.677731 0.272,-1.553 -0.820219,-2.084671 -1.824218,-0.888671 -1.179001,1.403999 -1.859125,1.295421 -2.453126,-0.392579 -0.186,-0.529 -0.476531,-1.316953 -0.644531,-1.751953 -0.623,-1.604 -0.454984,-2.49664 0.791016,-4.18164 1.9,-2.57 2.012797,-2.601 5.091797,-1.5 0.799,0.286 2.114875,0.553531 3.171875,0.644531 1.933,0.165 4.143234,1.107844 6.365234,2.714844 0.338,0.245 0.665516,0.445312 0.728516,0.445312 0.14,0 1.756468,0.964125 3.480472,2.078125 1.26,0.813 2.01769,1.56711 3.30468,3.28711 0.35201,0.471 1.131425,1.478281 1.732425,2.238281 0.601,0.761 1.42312,1.851828 1.82812,2.423828 0.741,1.047003 4.25816,5.594469 5.78516,7.480469 1.232,1.521 1.747,1.23628 2.75,-1.51172 0.336,-0.922 0.84295,-2.311886 1.12695,-3.087886 0.696,-1.906 0.12011,-2.67988 -1.33789,-1.79688 -0.53,0.321 -1.09942,-0.3279 -2.85742,-3.253905 -1.46,-2.429 -1.48288,-2.555141 -0.67188,-3.994141 0.965,-1.709 1.78472,-1.99014 3.26172,-1.11914 1.438,0.849 2.05783,0.20475 2.54883,-2.65625 0.167,-0.972 0.40716,-2.18336 0.53516,-2.69336 0.359,-1.431 -0.29733,-1.985437 -1.36133,-1.148437 -0.961,0.757 -1.70836,0.545641 -1.56836,-0.443359 0.066,-0.462001 0.17609,-1.25 0.24609,-1.75 0.168,-1.206001 -0.11429,-1.688797 -1.15429,-1.966797 -1.81,-0.484 -1.68869,-1.900344 0.19531,-2.277344 0.341,-0.068 0.8195,-0.335703 1.0625,-0.595703 0.2745,-0.292125 0.54305,-0.453737 0.83594,-0.478516 z M 127.1915,93.73709 c -0.14903,-0.03439 -0.26006,0.01928 -0.32031,0.175781 -0.178,0.464 0.10386,2.524363 0.50586,3.693363 0.196,0.572 0.46184,1.64572 0.58984,2.38672 0.129,0.739986 0.40438,1.772916 0.60938,2.294916 0.206,0.523 0.43767,1.51698 0.51367,2.20898 0.077,0.693 0.33808,1.88258 0.58008,2.64258 0.243,0.761 0.5515,1.98756 0.6875,2.72656 l 0.24804,1.3418 1.40821,0.71094 c 5.469,2.758 5.63884,2.21431 1.46484,-4.67969 -1.82,-3.006 -2.03131,-3.52772 -2.07031,-5.13672 -0.019,-0.815 -0.0408,-1.74822 -0.0488,-2.07422 -0.009,-0.358996 -0.36058,-1.096996 -0.89258,-1.874996 -0.482,-0.707 -1.07155,-1.64117 -1.31055,-2.07617 -0.73425,-1.335751 -1.51775,-2.236672 -1.96484,-2.339844 z m -117.2714791,32.43164 0.3945321,0.39453 c 0.228,0.228 0.34439,0.52898 0.27539,0.70898 -0.293,0.762 -0.9992031,0.15417 -0.7832031,-0.67383 l 0.113281,-0.42968 z m 95.1484291,5.17578 c 0.39113,-0.011 0.76538,0.0271 0.85938,0.12109 0.178,0.178 -0.47802,0.64825 -0.91602,0.65625 -0.611,0.01 -1.22534,-0.40147 -0.90234,-0.60547 0.1595,-0.101 0.56786,-0.16087 0.95898,-0.17187 z m 45.92188,3.7539 c 0.16175,-0.0126 0.35976,0.11794 0.50976,0.39844 0.163,0.304 0.15943,0.48331 -0.0176,0.69531 -0.318,0.383 -0.7793,0.009 -0.7793,-0.63281 0,-0.292 0.12536,-0.44831 0.28711,-0.46094 z m 11.80469,6.33594 c 0.077,-0.013 0.32096,0.17216 0.54296,0.41016 0.658,0.707 0.54,1.3457 -0.25,1.3457 -1.58,0 -1.83196,-1.50486 -0.29296,-1.75586 z m -40.75977,0.78711 c 0.41275,-0.0266 0.84556,0.1027 1.03906,0.4082 0.275,0.434 0.0879,0.63644 -0.83007,0.89844 -0.481,0.137 -1.02966,0.43983 -1.22266,0.67383 -0.349,0.423 -1.92188,0.86602 -1.92188,0.54102 0,-0.094 0.17654,-0.17188 0.39454,-0.17188 0.21699,0 0.39648,-0.12344 0.39648,-0.27344 0,-0.151 0.22781,-0.42342 0.50781,-0.60742 0.28,-0.183 0.60375,-0.60259 0.71875,-0.93359 0.1135,-0.325 0.50522,-0.50853 0.91797,-0.53516 z m 13.12305,1.48438 c 0.46,-0.0327 1.01764,0.11707 1.61914,0.45507 1.256,0.706 0.71139,1.59775 -0.97461,1.59375 -1.829,-0.005 -2.24174,-0.35029 -1.67774,-1.40429 0.2115,-0.396 0.57321,-0.61178 1.03321,-0.64453 z m -12.30469,6.00195 c 0.108,0 0.19531,0.17753 0.19531,0.39453 0,0.217 -0.0873,0.39453 -0.19531,0.39453 -0.109,0 -0.19922,-0.17753 -0.19922,-0.39453 0,-0.217 0.0902,-0.39453 0.19922,-0.39453 z"
     id="path0"
     inkscape:connector-curvature="0" />
</svg>
